<?xml version="1.0" encoding="UTF-8"?>
<svg version="1.1" xmlns="http://www.w3.org/2000/svg" width="500" height="500">
<path d="M0 0 C165 0 330 0 500 0 C500 165 500 330 500 500 C335 500 170 500 0 500 C0 335 0 170 0 0 Z " fill="#F5FEFE" transform="translate(0,0)"/>
<path d="M0 0 C3.8312768 2.3171195 6.78322311 5.12504506 9.609375 8.578125 C12.46567096 7.27699235 14.53147713 5.86224495 16.796875 3.703125 C24.45827963 -2.86379326 31.86581616 -4.23560716 41.796875 -3.8046875 C46.80856484 -3.30146454 50.39729705 -2.13144819 54.609375 0.578125 C55.30417969 1.00222656 55.99898438 1.42632812 56.71484375 1.86328125 C63.90097435 6.70347053 68.73746236 13.7714638 71.13671875 22.08984375 C74.3710995 39.11712094 67.91868771 56.70794611 58.625 70.765625 C48.88968205 84.34978958 35.54571414 94.11452651 21.484375 102.890625 C20.89374268 103.26977051 20.30311035 103.64891602 19.69458008 104.03955078 C15.52288132 106.5329663 12.4199872 107.11633651 7.609375 106.578125 C-5.32345585 101.79394998 -17.55958492 90.94778053 -27.390625 81.578125 C-28.00164062 81.041875 -28.61265625 80.505625 -29.2421875 79.953125 C-40.9082712 69.29916728 -48.86629966 53.2747297 -49.796875 37.52734375 C-50.15926891 25.0394139 -49.20919386 16.62165573 -41.015625 6.703125 C-39.71625 5.65125 -39.71625 5.65125 -38.390625 4.578125 C-37.46056641 3.81048828 -37.46056641 3.81048828 -36.51171875 3.02734375 C-25.73354485 -5.54202032 -12.35653278 -5.81091001 0 0 Z " fill="#FE3232" transform="translate(239.390625,117.421875)"/>
<path d="M0 0 C3.00132523 2.80713165 3.9291272 4.46236079 4.4699707 8.56518555 C4.4760435 9.92242963 4.46022154 11.27989811 4.42578125 12.63671875 C4.42249313 13.35737015 4.41920502 14.07802155 4.41581726 14.82051086 C4.4054353 16.33591821 4.38555133 17.85128703 4.35668945 19.36645508 C4.31244311 21.69048822 4.29522378 24.01348752 4.28320312 26.33789062 C4.26978499 27.81251498 4.25486365 29.28712659 4.23828125 30.76171875 C4.23089432 31.45754562 4.22350739 32.1533725 4.21589661 32.87028503 C4.11843982 37.76312036 4.11843982 37.76312036 3 40 C2.27112422 45.25224101 2.27112422 45.25224101 4.24609375 49.98828125 C6.07701473 52.09828025 8.00106094 54.04830859 10 56 C10.79148438 56.82628906 11.58296875 57.65257812 12.3984375 58.50390625 C15.61288273 61.8422292 15.61288273 61.8422292 19 65 C19.66 65 20.32 65 21 65 C19.65302115 61.96000664 18.18835008 59.99733422 15.7421875 57.7578125 C15.11699219 57.16613281 14.49179688 56.57445312 13.84765625 55.96484375 C12.532246 54.73799578 11.20927575 53.51920396 9.87890625 52.30859375 C5.12414047 47.77040115 5.12414047 47.77040115 4.46875 43.703125 C5.15615379 40.20545278 6.06308791 39.00946617 9 37 C12.52177681 36.58409878 14.33481013 36.54714191 17.30255127 38.56756592 C18.02932068 39.30162659 18.75609009 40.03568726 19.50488281 40.79199219 C20.33884583 41.619953 21.17280884 42.44791382 22.03204346 43.30096436 C22.91350037 44.20711487 23.79495728 45.11326538 24.703125 46.046875 C26.08162628 47.43099579 26.08162628 47.43099579 27.48797607 48.84307861 C29.43033664 50.79463117 31.36248188 52.75556852 33.28710938 54.72460938 C35.75049543 57.24455951 38.23090658 59.74683143 40.71825027 62.24311447 C43.09457545 64.62976787 45.4614153 67.02568365 47.828125 69.421875 C49.16245575 70.76895538 49.16245575 70.76895538 50.52374268 72.14324951 C51.34509705 72.98381897 52.16645142 73.82438843 53.01269531 74.69042969 C53.73628235 75.42767273 54.45986938 76.16491577 55.2053833 76.92449951 C62.17596445 84.98607867 59 90.31662553 59 103 C45.14 103 31.28 103 17 103 C16.505 97.06 16.505 97.06 16 91 C14.21058894 88.25747278 13.07018673 86.77806723 10.72265625 84.71875 C10.19610947 84.21251099 9.66956268 83.70627197 9.12705994 83.18469238 C7.46317656 81.59471729 5.76599376 80.04735428 4.0625 78.5 C2.3713562 76.91661689 0.68815571 75.32533335 -0.99134827 73.72961426 C-2.03243085 72.74560493 -3.08161707 71.77007698 -4.13987732 70.80456543 C-7.70041598 67.5101099 -9.7938808 65.16531924 -10.26069641 60.26133728 C-10.2653038 59.21337479 -10.26991119 58.16541229 -10.2746582 57.08569336 C-10.28895622 55.29880348 -10.28895622 55.29880348 -10.30354309 53.47581482 C-10.30263168 52.19344437 -10.30172028 50.91107391 -10.30078125 49.58984375 C-10.30506638 48.27085587 -10.3093515 46.95186798 -10.31376648 45.59291077 C-10.32121805 42.80465672 -10.32094442 40.01652933 -10.31567383 37.22827148 C-10.30986914 33.65472402 -10.32683868 30.08169317 -10.3500185 26.50823116 C-10.36828272 23.09791329 -10.36457112 19.68771032 -10.36328125 16.27734375 C-10.372491 14.99294907 -10.38170074 13.70855438 -10.39118958 12.38523865 C-10.38496078 11.19713089 -10.37873199 10.00902313 -10.37231445 8.78491211 C-10.37294388 7.73774521 -10.3735733 6.69057831 -10.3742218 5.61167908 C-10 3 -10 3 -8.6915741 1.16969299 C-5.77186286 -0.84923469 -3.41456322 -0.47923694 0 0 Z " fill="#FE3333" transform="translate(162,183)"/>
<path d="M0 0 C3.5 0.4375 3.5 0.4375 5.19151306 1.60151672 C7.03674925 4.19063144 6.90142371 6.08650373 6.93579102 9.25073242 C6.95493057 10.44595016 6.97407013 11.64116791 6.99378967 12.87260437 C6.99712814 14.16632462 7.00046661 15.46004486 7.00390625 16.79296875 C7.01355157 18.13715432 7.02364437 19.48133674 7.03416443 20.82551575 C7.05213194 23.64587694 7.05768538 26.46596256 7.0559082 29.28637695 C7.05560441 32.88353884 7.09644305 36.47890963 7.14822483 40.07564831 C7.18176045 42.85457803 7.18766047 45.63308394 7.18607903 48.41219521 C7.19129873 50.3774853 7.22372891 52.34264302 7.25672913 54.30766296 C7.20459848 61.14730059 6.77332558 65.66074162 2.11769104 70.85209656 C1.583853 71.37527969 1.05001495 71.89846283 0.5 72.4375 C-0.73810425 73.70944214 -0.73810425 73.70944214 -2.0012207 75.00708008 C-2.80132568 75.73306396 -3.60143066 76.45904785 -4.42578125 77.20703125 C-5.74352539 78.44743164 -5.74352539 78.44743164 -7.08789062 79.71289062 C-8.90898354 81.40866101 -10.7451393 83.08839365 -12.59570312 84.75195312 C-13.46775391 85.58275391 -14.33980469 86.41355469 -15.23828125 87.26953125 C-16.42997925 88.36358276 -16.42997925 88.36358276 -17.64575195 89.47973633 C-20.42513592 93.41780256 -20.42513592 93.41780256 -20.5 103.4375 C-34.36 103.4375 -48.22 103.4375 -62.5 103.4375 C-62.5 80.96657058 -62.5 80.96657058 -55.58276367 73.98681641 C-54.80152634 73.18974274 -54.020289 72.39266907 -53.21537781 71.57144165 C-51.95441032 70.31791397 -51.95441032 70.31791397 -50.66796875 69.0390625 C-49.79860184 68.16349701 -48.92923492 67.28793152 -48.03352356 66.38583374 C-46.19849923 64.54372445 -44.35834764 62.70671026 -42.51342773 60.87451172 C-39.69185068 58.06682926 -36.89512971 55.2359435 -34.09960938 52.40234375 C-32.31134766 50.6131311 -30.52168086 48.82532145 -28.73046875 47.0390625 C-27.89589645 46.19123199 -27.06132416 45.34340149 -26.20146179 44.46987915 C-25.41076797 43.69171844 -24.62007416 42.91355774 -23.80541992 42.11181641 C-23.1171965 41.42455475 -22.42897308 40.73729309 -21.71989441 40.02920532 C-18.96554428 38.05428537 -16.85359181 37.69358632 -13.5 37.4375 C-10.75045672 38.40355575 -9.80992243 38.81765514 -8.5 41.4375 C-7.89568342 44.61016206 -7.94157442 46.61348177 -9.78125 49.328125 C-13.55968711 53.6905024 -17.7201418 57.69914075 -21.8984375 61.67578125 C-23.72904557 63.45103029 -23.72904557 63.45103029 -24.5 66.4375 C-20.35964314 64.19417937 -17.15403804 61.39558811 -13.875 58.0625 C-13.39804687 57.59328125 -12.92109375 57.1240625 -12.4296875 56.640625 C-8.68305544 52.87317832 -5.67434054 49.66034185 -5.25 44.25 C-5.32253891 41.48720148 -5.32253891 41.48720148 -6.5 39.4375 C-6.62308974 36.85821047 -6.68835973 34.30695066 -6.703125 31.7265625 C-6.70882507 30.96201752 -6.71452515 30.19747253 -6.72039795 29.40975952 C-6.7298497 27.79076523 -6.73638263 26.17175168 -6.74023438 24.55273438 C-6.74993496 22.07908442 -6.78095335 19.60626719 -6.8125 17.1328125 C-6.81903068 15.55990077 -6.8242809 13.98698309 -6.828125 12.4140625 C-6.8404718 11.67539948 -6.8528186 10.93673645 -6.86553955 10.1756897 C-6.85194534 7.03218699 -6.67535381 4.77038283 -5.19824219 1.96630859 C-3.5 0.4375 -3.5 0.4375 0 0 Z " fill="#FE3333" transform="translate(341.5,182.5625)"/>
<path d="M0 0 C1.85625 -0.01160156 1.85625 -0.01160156 3.75 -0.0234375 C7 0.375 7 0.375 8.92578125 1.60546875 C10.31844772 3.89957025 10.30337422 5.39739295 10.1875 8.0625 C10.14689453 9.27486328 10.14689453 9.27486328 10.10546875 10.51171875 C10.05326172 11.43404297 10.05326172 11.43404297 10 12.375 C10.60328125 12.32859375 11.2065625 12.2821875 11.828125 12.234375 C12.62734375 12.19828125 13.4265625 12.1621875 14.25 12.125 C15.03890625 12.07859375 15.8278125 12.0321875 16.640625 11.984375 C19.94905204 12.53212782 21.03105279 13.69652227 23 16.375 C23.53125 19.25 23.53125 19.25 23.5 22.375 C23.5103125 23.40625 23.520625 24.4375 23.53125 25.5 C22.87207942 29.06727611 21.91950605 30.26087493 19 32.375 C16.640625 32.765625 16.640625 32.765625 14.25 32.625 C13.45078125 32.58890625 12.6515625 32.5528125 11.828125 32.515625 C11.22484375 32.46921875 10.6215625 32.4228125 10 32.375 C10.04640625 32.97828125 10.0928125 33.5815625 10.140625 34.203125 C10.30814353 37.91246393 10.40143431 40.5912473 8.6875 43.9375 C4.26694609 46.30198232 -0.1106758 46.06210917 -5 45.375 C-8.1875 43.9375 -8.1875 43.9375 -10 41.375 C-10.38817084 38.32733433 -10.29352889 35.4277005 -10 32.375 C-10.92232422 32.42720703 -10.92232422 32.42720703 -11.86328125 32.48046875 C-12.67152344 32.50753906 -13.47976562 32.53460938 -14.3125 32.5625 C-15.51326172 32.61470703 -15.51326172 32.61470703 -16.73828125 32.66796875 C-19 32.375 -19 32.375 -20.76953125 31.30078125 C-22.64656266 28.36307812 -22.39653872 25.82119501 -22.375 22.375 C-22.38273438 21.1375 -22.39046875 19.9 -22.3984375 18.625 C-22 15.375 -22 15.375 -20.76953125 13.44921875 C-18.47542975 12.05655228 -16.97760705 12.07162578 -14.3125 12.1875 C-13.10013672 12.22810547 -13.10013672 12.22810547 -11.86328125 12.26953125 C-11.24839844 12.30433594 -10.63351563 12.33914062 -10 12.375 C-10.03480469 11.76011719 -10.06960937 11.14523438 -10.10546875 10.51171875 C-10.13253906 9.70347656 -10.15960938 8.89523438 -10.1875 8.0625 C-10.22230469 7.26199219 -10.25710937 6.46148437 -10.29296875 5.63671875 C-10 3.375 -10 3.375 -8.92578125 1.60546875 C-5.98807812 -0.27156266 -3.44619501 -0.02153872 0 0 Z " fill="#FE3333" transform="translate(250,144.625)"/>
<path d="M0 0 C7.67211673 -0.02463993 15.34421065 -0.04283123 23.01635742 -0.05493164 C25.62866619 -0.05997377 28.24097211 -0.06680725 30.85327148 -0.07543945 C34.59880268 -0.08751036 38.34429672 -0.09322935 42.08984375 -0.09765625 C43.26586655 -0.10281754 44.44188934 -0.10797882 45.65354919 -0.11329651 C46.73459427 -0.11337204 47.81563934 -0.11344757 48.92944336 -0.11352539 C49.88652695 -0.115746 50.84361053 -0.11796661 51.82969666 -0.12025452 C54 0 54 0 55 1 C55.0983721 2.33043625 55.13078592 3.66593344 55.1328125 5 C55.13474609 6.2065625 55.13474609 6.2065625 55.13671875 7.4375 C55.13285156 8.283125 55.12898438 9.12875 55.125 10 C55.13080078 11.2684375 55.13080078 11.2684375 55.13671875 12.5625 C55.13542969 13.366875 55.13414062 14.17125 55.1328125 15 C55.13168457 15.7425 55.13055664 16.485 55.12939453 17.25 C55 19 55 19 54 20 C52.31198015 20.09353163 50.62004793 20.11744791 48.92944336 20.11352539 C47.84839828 20.11344986 46.76735321 20.11337433 45.65354919 20.11329651 C43.889515 20.10555458 43.889515 20.10555458 42.08984375 20.09765625 C40.89267227 20.0962413 39.69550079 20.09482635 38.46205139 20.09336853 C34.62050934 20.08774979 30.77902457 20.07519411 26.9375 20.0625 C24.34049563 20.05748741 21.74349035 20.05292409 19.14648438 20.04882812 C12.76430068 20.03777427 6.38216007 20.02049708 0 20 C0 13.4 0 6.8 0 0 Z " fill="#FE3131" transform="translate(273,290)"/>
<path d="M0 0 C7.67211673 -0.02463993 15.34421065 -0.04283123 23.01635742 -0.05493164 C25.62866619 -0.05997377 28.24097211 -0.06680725 30.85327148 -0.07543945 C34.59880268 -0.08751036 38.34429672 -0.09322935 42.08984375 -0.09765625 C43.26586655 -0.10281754 44.44188934 -0.10797882 45.65354919 -0.11329651 C46.73459427 -0.11337204 47.81563934 -0.11344757 48.92944336 -0.11352539 C49.88652695 -0.115746 50.84361053 -0.11796661 51.82969666 -0.12025452 C54 0 54 0 55 1 C55.0983721 2.33043625 55.13078592 3.66593344 55.1328125 5 C55.13474609 6.2065625 55.13474609 6.2065625 55.13671875 7.4375 C55.13285156 8.283125 55.12898438 9.12875 55.125 10 C55.13080078 11.2684375 55.13080078 11.2684375 55.13671875 12.5625 C55.13542969 13.366875 55.13414062 14.17125 55.1328125 15 C55.13168457 15.7425 55.13055664 16.485 55.12939453 17.25 C55 19 55 19 54 20 C52.31198015 20.09353163 50.62004793 20.11744791 48.92944336 20.11352539 C47.84839828 20.11344986 46.76735321 20.11337433 45.65354919 20.11329651 C43.889515 20.10555458 43.889515 20.10555458 42.08984375 20.09765625 C40.89267227 20.0962413 39.69550079 20.09482635 38.46205139 20.09336853 C34.62050934 20.08774979 30.77902457 20.07519411 26.9375 20.0625 C24.34049563 20.05748741 21.74349035 20.05292409 19.14648438 20.04882812 C12.76430068 20.03777427 6.38216007 20.02049708 0 20 C0 13.4 0 6.8 0 0 Z " fill="#FE3232" transform="translate(173,290)"/>
<path d="M0 0 C1.85625 -0.01160156 1.85625 -0.01160156 3.75 -0.0234375 C7 0.375 7 0.375 8.92578125 1.60546875 C10.31844772 3.89957025 10.30337422 5.39739295 10.1875 8.0625 C10.14689453 9.27486328 10.14689453 9.27486328 10.10546875 10.51171875 C10.05326172 11.43404297 10.05326172 11.43404297 10 12.375 C10.60328125 12.32859375 11.2065625 12.2821875 11.828125 12.234375 C12.62734375 12.19828125 13.4265625 12.1621875 14.25 12.125 C15.03890625 12.07859375 15.8278125 12.0321875 16.640625 11.984375 C19.94905204 12.53212782 21.03105279 13.69652227 23 16.375 C23.53125 19.25 23.53125 19.25 23.5 22.375 C23.5103125 23.40625 23.520625 24.4375 23.53125 25.5 C22.87207942 29.06727611 21.91950605 30.26087493 19 32.375 C16.640625 32.765625 16.640625 32.765625 14.25 32.625 C13.45078125 32.58890625 12.6515625 32.5528125 11.828125 32.515625 C11.22484375 32.46921875 10.6215625 32.4228125 10 32.375 C10.04640625 32.97828125 10.0928125 33.5815625 10.140625 34.203125 C10.30814353 37.91246393 10.40143431 40.5912473 8.6875 43.9375 C4.26694609 46.30198232 -0.1106758 46.06210917 -5 45.375 C-8.1875 43.9375 -8.1875 43.9375 -10 41.375 C-10.38817084 38.32733433 -10.29352889 35.4277005 -10 32.375 C-10.92232422 32.42720703 -10.92232422 32.42720703 -11.86328125 32.48046875 C-12.67152344 32.50753906 -13.47976562 32.53460938 -14.3125 32.5625 C-15.51326172 32.61470703 -15.51326172 32.61470703 -16.73828125 32.66796875 C-19 32.375 -19 32.375 -20.76953125 31.30078125 C-22.64656266 28.36307812 -22.39653872 25.82119501 -22.375 22.375 C-22.38273438 21.1375 -22.39046875 19.9 -22.3984375 18.625 C-22 15.375 -22 15.375 -20.76953125 13.44921875 C-18.47542975 12.05655228 -16.97760705 12.07162578 -14.3125 12.1875 C-13.10013672 12.22810547 -13.10013672 12.22810547 -11.86328125 12.26953125 C-11.24839844 12.30433594 -10.63351563 12.33914062 -10 12.375 C-10.03480469 11.76011719 -10.06960937 11.14523438 -10.10546875 10.51171875 C-10.13253906 9.70347656 -10.15960938 8.89523438 -10.1875 8.0625 C-10.22230469 7.26199219 -10.25710937 6.46148437 -10.29296875 5.63671875 C-10 3.375 -10 3.375 -8.92578125 1.60546875 C-5.98807812 -0.27156266 -3.44619501 -0.02153872 0 0 Z M-6 4.375 C-6.23363881 6.22391946 -6.41303635 8.07988031 -6.5625 9.9375 C-6.64628906 10.94941406 -6.73007813 11.96132812 -6.81640625 13.00390625 C-6.87699219 13.78636719 -6.93757812 14.56882813 -7 15.375 C-7.78246094 15.43558594 -8.56492188 15.49617187 -9.37109375 15.55859375 C-10.38300781 15.64238281 -11.39492187 15.72617188 -12.4375 15.8125 C-13.44683594 15.89371094 -14.45617187 15.97492188 -15.49609375 16.05859375 C-17.93640779 16.10711468 -17.93640779 16.10711468 -19 17.375 C-19.09823937 19.03929051 -19.12973631 20.70781931 -19.125 22.375 C-19.12757813 23.2825 -19.13015625 24.19 -19.1328125 25.125 C-19.25173779 27.34466611 -19.25173779 27.34466611 -18 28.375 C-15.98405418 28.60927778 -13.961526 28.78836124 -11.9375 28.9375 C-10.83277344 29.02128906 -9.72804687 29.10507813 -8.58984375 29.19140625 C-7.73519531 29.25199219 -6.88054687 29.31257813 -6 29.375 C-6.01160156 30.15746094 -6.02320313 30.93992188 -6.03515625 31.74609375 C-6.04417969 32.75800781 -6.05320313 33.76992187 -6.0625 34.8125 C-6.07410156 35.82183594 -6.08570313 36.83117187 -6.09765625 37.87109375 C-6.28612676 40.31521067 -6.28612676 40.31521067 -5 41.375 C-3.16884117 41.47351171 -1.33380067 41.50472629 0.5 41.5 C2.00046875 41.50386719 2.00046875 41.50386719 3.53125 41.5078125 C5.94399622 41.65370382 5.94399622 41.65370382 7 40.375 C7.23363881 38.52608054 7.41303635 36.67011969 7.5625 34.8125 C7.706875 33.018125 7.85125 31.22375 8 29.375 C11.63 29.045 15.26 28.715 19 28.375 C19 24.415 19 20.455 19 16.375 C13.555 15.88 13.555 15.88 8 15.375 C7.8046875 12.54296875 7.609375 9.7109375 7.4140625 6.87890625 C7.27742188 6.05261719 7.14078125 5.22632813 7 4.375 C4.49860398 3.12430199 2.72607309 3.24197533 -0.0625 3.25 C-0.96097656 3.24742187 -1.85945313 3.24484375 -2.78515625 3.2421875 C-4.97378893 3.12761777 -4.97378893 3.12761777 -6 4.375 Z " fill="#F6E9E9" transform="translate(250,144.625)"/>
<path d="M0 0 C2.371875 -0.103125 4.74375 -0.20625 7.1875 -0.3125 C7.92508545 -0.35802002 8.6626709 -0.40354004 9.42260742 -0.45043945 C13.13795848 -0.52820845 14.90903339 -0.06384464 17.9609375 2.078125 C20.48296962 5.69207141 20.58235654 7.69343981 20.4375 12.0625 C20.41558594 13.27035156 20.39367187 14.47820312 20.37109375 15.72265625 C20.0273942 18.75806598 19.70843048 20.50925792 18 23 C14.31602884 25.45598077 11.55276192 25.2271532 7.3125 25.125 C4.899375 25.08375 2.48625 25.0425 0 25 C0 16.75 0 8.5 0 0 Z " fill="#FEDF5F" transform="translate(245,326)"/>
<path d="M0 0 C3.5386994 1.65139305 4.81070153 2.71605229 7 6 C7.37109375 9.3984375 7.37109375 9.3984375 7.4375 13.375 C7.47746094 14.68210937 7.51742187 15.98921875 7.55859375 17.3359375 C6.87412133 21.82569366 5.48600055 23.20071535 2 26 C-0.40927511 27.20463755 -1.70611534 27.07893471 -4.375 26.875 C-5.53128906 26.80925781 -5.53128906 26.80925781 -6.7109375 26.7421875 C-10.13073262 25.63338021 -11.17729947 24.06767009 -13 21 C-13.44835889 18.15845274 -13.65109319 15.82850135 -13.625 13 C-13.65722656 12.30132812 -13.68945312 11.60265625 -13.72265625 10.8828125 C-13.72806345 8.01699639 -13.55263479 5.70286457 -11.74536133 3.40429688 C-7.83822724 -0.03070737 -5.11217734 -0.74358943 0 0 Z " fill="#FEDF5E" transform="translate(232,325)"/>
<path d="M0 0 C2.87305972 1.40460697 4.74510999 2.74510999 7 5 C7.28013291 7.65683945 7.41618681 10.15308766 7.4375 12.8125 C7.47037109 13.52470703 7.50324219 14.23691406 7.53710938 14.97070312 C7.57837634 19.02612034 7.18695905 20.77048117 4.59765625 23.94921875 C0.81749836 26.93355392 -1.17331553 27.46410428 -6 27 C-11.57894737 23.84210526 -11.57894737 23.84210526 -13 21 C-13.17721577 18.54512577 -13.27736821 16.14438336 -13.3125 13.6875 C-13.34988281 12.37136719 -13.38726562 11.05523437 -13.42578125 9.69921875 C-12.94219336 5.49777168 -11.96928843 3.93623513 -9 1 C-5.93570224 -0.53214888 -3.3834358 -0.22938548 0 0 Z " fill="#FEDF5E" transform="translate(206,325)"/>
<path d="M0 0 C2.31 0 4.62 0 7 0 C7 8.58 7 17.16 7 26 C4.69 26 2.38 26 0 26 C-1.65 22.7 -3.3 19.4 -5 16 C-5.33 19.3 -5.66 22.6 -6 26 C-8.31 26 -10.62 26 -13 26 C-13 17.75 -13 9.5 -13 1 C-10.36 1 -7.72 1 -5 1 C-3.68 3.97 -2.36 6.94 -1 10 C-0.67 6.7 -0.34 3.4 0 0 Z " fill="#FEDF5F" transform="translate(319,325)"/>
<path d="M0 0 C13.39615385 -0.37211538 13.39615385 -0.37211538 16.453125 1.51171875 C16.96359375 2.00285156 17.4740625 2.49398438 18 3 C17.835 4.11375 17.67 5.2275 17.5 6.375 C16.6781514 11.03576436 16.6781514 11.03576436 19 15 C19.445239 18.4877055 19.51663107 20.26963578 17.4609375 23.17578125 C14.11680952 25.65468247 11.2273893 25.44397712 7.25 25.25 C4.8575 25.1675 2.465 25.085 0 25 C0 16.75 0 8.5 0 0 Z " fill="#FEDE5D" transform="translate(148,326)"/>
<path d="M0 0 C2.31 0 4.62 0 7 0 C7 2.97 7 5.94 7 9 C7.66 9 8.32 9 9 9 C9.99 6.03 10.98 3.06 12 0 C14.31 0 16.62 0 19 0 C18.24242424 5.55555556 18.24242424 5.55555556 16.875 8.0625 C15.37392059 11.3863187 16.77147048 14.37131438 17.97265625 17.67578125 C18.33230469 18.54589844 18.69195312 19.41601562 19.0625 20.3125 C19.42472656 21.19550781 19.78695313 22.07851563 20.16015625 22.98828125 C20.57587891 23.98408203 20.57587891 23.98408203 21 25 C18.36 25 15.72 25 13 25 C12.73445313 24.36191406 12.46890625 23.72382813 12.1953125 23.06640625 C11.84210938 22.24011719 11.48890625 21.41382813 11.125 20.5625 C10.77695312 19.73878906 10.42890625 18.91507812 10.0703125 18.06640625 C9.1755063 15.84253285 9.1755063 15.84253285 7 15 C7 18.3 7 21.6 7 25 C4.69 25 2.38 25 0 25 C0 16.75 0 8.5 0 0 Z " fill="#FEDE5B" transform="translate(333,326)"/>
<path d="M0 0 C2.31 0 4.62 0 7 0 C7 6.27 7 12.54 7 19 C9.64 19 12.28 19 15 19 C15 20.98 15 22.96 15 25 C10.05 25 5.1 25 0 25 C0 16.75 0 8.5 0 0 Z " fill="#FFDE59" transform="translate(271,326)"/>
<path d="M0 0 C2.31 0 4.62 0 7 0 C7 6.27 7 12.54 7 19 C9.64 19 12.28 19 15 19 C15 20.98 15 22.96 15 25 C10.05 25 5.1 25 0 25 C0 16.75 0 8.5 0 0 Z " fill="#FFDE59" transform="translate(173,326)"/>
<path d="M0 0 C2.31 0 4.62 0 7 0 C7 8.25 7 16.5 7 25 C4.69 25 2.38 25 0 25 C0 16.75 0 8.5 0 0 Z " fill="#FFDE59" transform="translate(292,326)"/>
<path d="M0 0 C0.99 0.33 1.98 0.66 3 1 C1.52742074 4.1857284 -0.2944232 6.86645591 -2.375 9.6875 C-5.26526601 13.72907529 -7.34610821 17.63648854 -9.078125 22.28515625 C-10 24 -10 24 -13 25 C-13.52198937 16.31715245 -8.66555051 9.66551413 -3.125 3.3125 C-2.0937189 2.19862713 -1.05604986 1.09041835 0 0 Z " fill="#FE4343" transform="translate(188,110)"/>
<path d="M0 0 C-0.35251133 2.83268034 -0.89789651 3.89992237 -2.96875 5.9296875 C-18.6746988 18 -18.6746988 18 -24 18 C-24 17.01 -24 16.02 -24 15 C-21.9453125 13.45703125 -21.9453125 13.45703125 -19.125 11.8125 C-14.06177758 8.75101668 -9.58551126 5.34669551 -5.09375 1.50390625 C-3 0 -3 0 0 0 Z " fill="#FE4242" transform="translate(293,215)"/>
<path d="M0 0 C3.875 0.875 3.875 0.875 5 2 C5.07226502 3.85287502 5.0838122 5.70833878 5.0625 7.5625 C5.05347656 8.57441406 5.04445312 9.58632813 5.03515625 10.62890625 C5.02355469 11.41136719 5.01195312 12.19382812 5 13 C3.34385343 13.38218767 1.67542976 13.71395102 0 14 C-1 13 -1 13 -1.1328125 10.56640625 C-1.13023437 9.57511719 -1.12765625 8.58382813 -1.125 7.5625 C-1.12757813 6.57378906 -1.13015625 5.58507812 -1.1328125 4.56640625 C-1 2 -1 2 0 0 Z " fill="#F5FCF1" transform="translate(227,331)"/>
<path d="M0 0 C0.99 0 1.98 0 3 0 C4.32229189 2.64458379 4.09677194 4.67761301 4.0625 7.625 C4.05347656 8.62789063 4.04445312 9.63078125 4.03515625 10.6640625 C4.02355469 11.43492187 4.01195312 12.20578125 4 13 C2.34385343 13.38218767 0.67542976 13.71395102 -1 14 C-2.73849628 12.26150372 -2.17216296 9.9213363 -2.1875 7.5625 C-2.20167969 6.57378906 -2.21585938 5.58507812 -2.23046875 4.56640625 C-2 2 -2 2 0 0 Z " fill="#F5FCF1" transform="translate(202,331)"/>
<path d="M0 0 C2.475 0.495 2.475 0.495 5 1 C5.02698189 2.62490954 5.04638757 4.24994633 5.0625 5.875 C5.07410156 6.77992188 5.08570313 7.68484375 5.09765625 8.6171875 C5 11 5 11 4 13 C2.68 13 1.36 13 0 13 C0 8.71 0 4.42 0 0 Z " fill="#F5FDF9" transform="translate(253,332)"/>
<path d="M0 0 C2.475 0.495 2.475 0.495 5 1 C5 1.99 5 2.98 5 4 C3.35 4 1.7 4 0 4 C0 2.68 0 1.36 0 0 Z " fill="#F5FCF4" transform="translate(155,341)"/>
<path d="M0 0 C1.32 0 2.64 0 4 0 C3.67 1.65 3.34 3.3 3 5 C2.01 5 1.02 5 0 5 C0 3.35 0 1.7 0 0 Z " fill="#F6FBEB" transform="translate(155,331)"/>
</svg>
